<?xml version='1.0' encoding='utf-8'?>
<svg xmlns="http://www.w3.org/2000/svg" enable-background="new 0 0 358.921 679.122" viewBox="0 0 358.92 679.12"> <path d="m358.9 118.69-1.801-46.908-159.15-45.54 5.867 67.644 155.09 24.804z" fill-rule="evenodd" stroke="#000" stroke-miterlimit="10" stroke-width=".036"/> <path d="m172.71 28.044 2.7 65.376-173.59 49.14-1.8-47.34 172.69-67.176z" fill-rule="evenodd" stroke="#000" stroke-miterlimit="10" stroke-width=".036"/> <path d="m192.08 6.876 50.508 672.23h-43.199l-25.345-672.7c1.944-3.06 3.924-4.968 6.336-5.868 2.375-0.828 5.581-0.72 7.668 0.468 1.981 1.08 3.276 2.988 4.032 5.868z" fill-rule="evenodd" stroke="#000" stroke-miterlimit="10" stroke-width=".036"/> <path d="m171.34 30.78-168.62 66.276 1.368 41.904 169.52-47.772-2.268-60.408z" fill="#21a161" fill-rule="evenodd" stroke="#000" stroke-miterlimit="10" stroke-width=".036"/> <path d="m199.75 28.944 5.869 62.244 150.59 24.804-1.801-42.84-154.66-44.208z" fill="#21a161" fill-rule="evenodd" stroke="#000" stroke-miterlimit="10" stroke-width=".036"/> <path d="m190.279,8.208 43.451,665.353h-26.568l-30.851-664.885c-.036-2.268.72-3.924 2.268-4.968 1.512-1.116 4.679-2.124 6.732-1.368 2.015.756 3.492,2.664 4.968,5.868z" fill="#808080" fill-rule="evenodd" stroke="#000" stroke-miterlimit="10" stroke-width=".036"/> <path d="m174.69,43.848c.108-1.728.72-3.348 1.836-5.004 1.044-1.692 2.556-3.816 4.681-4.716 2.016-.936 5.76-1.332 7.883-.756 2.018.54 3.42,1.98 4.609,3.744 1.188,1.62 2.016,3.636 2.482,6.048l6.518,2.376c.791.144 1.402-.108 1.836-.36 .395-.36.504-1.044.467-1.62-.143-.612-.467-1.368-.971-2.124l-6.877-2.7c-.145-1.08-.648-2.196-1.367-3.348-.756-1.368-1.729-2.664-3.061-3.744-1.404-1.044-3.096-1.836-5.076-2.088-2.16-.288-5.256-.108-7.2.54-1.98.468-3.312,1.404-4.428,2.808-1.152,1.44-1.944,3.132-2.376,5.472l-4.032,3.24c-.396.324-.828.72-1.152,1.332-.504.576-1.008,1.512-.972,2.232 .072.648.72,1.44 1.368,1.8 .468.288 1.116.288 1.8,0 1.333-1.044 2.665-2.088 4.032-3.132z" fill-rule="evenodd" stroke="#000" stroke-miterlimit="10" stroke-width=".036"/> <path d="m175.951,79.74c.18-1.98.72-4.032 2.016-5.868 1.188-1.908 2.844-4.536 5.256-5.544 2.305-1.116 6.336-1.548 8.748-.9 2.268.576 3.779,2.376 5.111,4.428 1.297,1.98 2.268,4.212 2.773,7.092l7.234,2.844c.938.036 1.621-.072 2.053-.468 .432-.504.611-1.188.539-1.908-.107-.756-.467-1.584-1.08-2.484l-7.703-3.168c-.252-1.224-.611-2.592-1.477-3.96-.898-1.512-1.908-3.312-3.42-4.428-1.584-1.224-3.42-2.232-5.652-2.484-2.375-.324-5.832,0-7.99.684-2.125.576-3.709,1.62-4.897,3.276-1.332,1.656-2.124,3.672-2.664,6.444l-4.5,3.852c-.432.396-.9.828-1.26,1.584-.504.684-1.188,1.692-1.08,2.592 .108.792.792,1.692 1.476,2.16 .54.36 1.224.36 2.052,0 1.476-1.224 2.952-2.484 4.465-3.744z" fill-rule="evenodd" stroke="#000" stroke-miterlimit="10" stroke-width=".036"/> </svg>